<svg xmlns="http://www.w3.org/2000/svg" xmlns:xlink="http://www.w3.org/1999/xlink" width="32" height="32" preserveAspectRatio="xMidYMid meet" viewBox="0 0 32 32" style="-ms-transform: rotate(360deg); -webkit-transform: rotate(360deg); transform: rotate(360deg);"><defs/><path d="M24 24H6a2 2 0 0 1-2-2V10a2 2 0 0 1 2-2h18a2 2 0 0 1 2 2v1h1a2 2 0 0 1 2 2v6a2 2 0 0 1-2 2h-1v1a2 2 0 0 1-2 2zM6 10v12h18v-3h3v-6h-3v-3z" fill="#626262"/><path transform="rotate(90 15 16)" d="M11 9h8v14h-8z" fill="#626262"/><rect x="0" y="0" width="32" height="32" fill="rgba(0, 0, 0, 0)" /></svg>